<svg width="1920" height="1099" viewBox="0 0 1920 1099" fill="none" xmlns="http://www.w3.org/2000/svg">
<mask id="mask0_13_13" style="mask-type:alpha" maskUnits="userSpaceOnUse" x="0" y="0" width="1920" height="1099">
<rect width="1920" height="1099" fill="#D5D5D5"/>
</mask>
<g mask="url(#mask0_13_13)">
<circle cx="960" cy="1057" r="478" fill="#14B0FF"/>
<path d="M890.892 105.76C893.26 105.76 895.329 106.219 897.1 107.136C898.892 108.032 900.268 109.333 901.228 111.04C902.209 112.725 902.7 114.699 902.7 116.96C902.7 119.221 902.209 121.184 901.228 122.848C900.268 124.512 898.892 125.792 897.1 126.688C895.329 127.563 893.26 128 890.892 128H883.628V105.76H890.892ZM890.892 125.024C893.495 125.024 895.489 124.32 896.876 122.912C898.263 121.504 898.956 119.52 898.956 116.96C898.956 114.379 898.263 112.363 896.876 110.912C895.489 109.461 893.495 108.736 890.892 108.736H887.276V125.024H890.892ZM904.62 119.104C904.62 117.333 904.982 115.765 905.708 114.4C906.454 113.035 907.457 111.979 908.716 111.232C909.996 110.464 911.404 110.08 912.94 110.08C914.326 110.08 915.532 110.357 916.556 110.912C917.601 111.445 918.433 112.117 919.052 112.928V110.368H922.732V128H919.052V125.376C918.433 126.208 917.59 126.901 916.524 127.456C915.457 128.011 914.241 128.288 912.876 128.288C911.361 128.288 909.974 127.904 908.716 127.136C907.457 126.347 906.454 125.259 905.708 123.872C904.982 122.464 904.62 120.875 904.62 119.104ZM919.052 119.168C919.052 117.952 918.796 116.896 918.284 116C917.793 115.104 917.142 114.421 916.332 113.952C915.521 113.483 914.646 113.248 913.708 113.248C912.769 113.248 911.894 113.483 911.084 113.952C910.273 114.4 909.612 115.072 909.1 115.968C908.609 116.843 908.364 117.888 908.364 119.104C908.364 120.32 908.609 121.387 909.1 122.304C909.612 123.221 910.273 123.925 911.084 124.416C911.916 124.885 912.79 125.12 913.708 125.12C914.646 125.12 915.521 124.885 916.332 124.416C917.142 123.947 917.793 123.264 918.284 122.368C918.796 121.451 919.052 120.384 919.052 119.168ZM930.691 112.928C931.224 112.032 931.928 111.339 932.803 110.848C933.699 110.336 934.755 110.08 935.971 110.08V113.856H935.043C933.614 113.856 932.526 114.219 931.779 114.944C931.054 115.669 930.691 116.928 930.691 118.72V128H927.043V110.368H930.691V112.928ZM942.492 112.928C943.026 112.032 943.73 111.339 944.604 110.848C945.5 110.336 946.556 110.08 947.772 110.08V113.856H946.844C945.415 113.856 944.327 114.219 943.58 114.944C942.855 115.669 942.492 116.928 942.492 118.72V128H938.844V110.368H942.492V112.928ZM966.518 110.368L955.702 136.288H951.926L955.51 127.712L948.566 110.368H952.63L957.59 123.808L962.742 110.368H966.518ZM972.439 104.32V128H968.791V104.32H972.439ZM996.709 105.76V121.792C996.709 123.776 996.101 125.344 994.885 126.496C993.69 127.648 992.111 128.224 990.149 128.224C988.186 128.224 986.597 127.648 985.381 126.496C984.186 125.344 983.589 123.776 983.589 121.792H987.269C987.29 122.773 987.535 123.552 988.005 124.128C988.495 124.704 989.21 124.992 990.149 124.992C991.087 124.992 991.802 124.704 992.293 124.128C992.783 123.531 993.029 122.752 993.029 121.792V105.76H996.709ZM1009.81 128.288C1008.15 128.288 1006.64 127.915 1005.3 127.168C1003.96 126.4 1002.9 125.333 1002.13 123.968C1001.36 122.581 1000.98 120.981 1000.98 119.168C1000.98 117.376 1001.37 115.787 1002.16 114.4C1002.95 113.013 1004.03 111.947 1005.4 111.2C1006.76 110.453 1008.29 110.08 1009.97 110.08C1011.66 110.08 1013.18 110.453 1014.55 111.2C1015.91 111.947 1016.99 113.013 1017.78 114.4C1018.57 115.787 1018.96 117.376 1018.96 119.168C1018.96 120.96 1018.56 122.549 1017.75 123.936C1016.94 125.323 1015.83 126.4 1014.42 127.168C1013.03 127.915 1011.5 128.288 1009.81 128.288ZM1009.81 125.12C1010.75 125.12 1011.62 124.896 1012.44 124.448C1013.27 124 1013.94 123.328 1014.45 122.432C1014.96 121.536 1015.22 120.448 1015.22 119.168C1015.22 117.888 1014.97 116.811 1014.48 115.936C1013.99 115.04 1013.34 114.368 1012.53 113.92C1011.72 113.472 1010.85 113.248 1009.91 113.248C1008.97 113.248 1008.09 113.472 1007.28 113.92C1006.49 114.368 1005.86 115.04 1005.4 115.936C1004.93 116.811 1004.69 117.888 1004.69 119.168C1004.69 121.067 1005.17 122.539 1006.13 123.584C1007.11 124.608 1008.34 125.12 1009.81 125.12ZM1031.21 110.08C1032.55 110.08 1033.75 110.368 1034.79 110.944C1035.86 111.52 1036.69 112.373 1037.29 113.504C1037.91 114.635 1038.22 116 1038.22 117.6V128H1034.6V118.144C1034.6 116.565 1034.21 115.36 1033.42 114.528C1032.63 113.675 1031.55 113.248 1030.19 113.248C1028.82 113.248 1027.73 113.675 1026.92 114.528C1026.13 115.36 1025.74 116.565 1025.74 118.144V128H1022.09V104.32H1025.74V112.416C1026.36 111.669 1027.13 111.093 1028.07 110.688C1029.03 110.283 1030.08 110.08 1031.21 110.08ZM1051.29 110.08C1052.67 110.08 1053.91 110.368 1055 110.944C1056.11 111.52 1056.97 112.373 1057.59 113.504C1058.21 114.635 1058.52 116 1058.52 117.6V128H1054.9V118.144C1054.9 116.565 1054.51 115.36 1053.72 114.528C1052.93 113.675 1051.85 113.248 1050.49 113.248C1049.12 113.248 1048.03 113.675 1047.22 114.528C1046.43 115.36 1046.04 116.565 1046.04 118.144V128H1042.39V110.368H1046.04V112.384C1046.64 111.659 1047.39 111.093 1048.31 110.688C1049.25 110.283 1050.24 110.08 1051.29 110.08Z" fill="white"/>
</g>
</svg>
